<mxfile host="www.iodraw.com" agent="Mozilla/5.0 (X11; Linux x86_64) AppleWebKit/537.36 (KHTML, like Gecko) Chrome/138.0.0.0 Safari/537.36" version="24.7.17">
  <diagram name="Page-1" id="r5drHmZ1GO0SzOR0JxVI">
    <mxGraphModel dx="2163" dy="4458" grid="1" gridSize="10" guides="1" tooltips="1" connect="1" arrows="1" fold="1" page="1" pageScale="1" pageWidth="827" pageHeight="1169" math="0" shadow="0">
      <root>
        <mxCell id="0" />
        <mxCell id="1" parent="0" />
        <mxCell id="jEakQbfR0bfkf2IqFZ7B-1" style="edgeStyle=orthogonalEdgeStyle;rounded=0;orthogonalLoop=1;jettySize=auto;html=1;exitX=0.75;exitY=1;exitDx=0;exitDy=0;entryX=1;entryY=0.5;entryDx=0;entryDy=0;" edge="1" parent="1" source="jEakQbfR0bfkf2IqFZ7B-2" target="jEakQbfR0bfkf2IqFZ7B-39">
          <mxGeometry relative="1" as="geometry" />
        </mxCell>
        <mxCell id="jEakQbfR0bfkf2IqFZ7B-2" value="" style="rounded=1;whiteSpace=wrap;html=1;" vertex="1" parent="1">
          <mxGeometry x="1680" y="-580" width="1296" height="210" as="geometry" />
        </mxCell>
        <mxCell id="jEakQbfR0bfkf2IqFZ7B-3" value="DB" style="rounded=1;whiteSpace=wrap;html=1;fontSize=12;glass=0;strokeWidth=1;shadow=0;" vertex="1" parent="1">
          <mxGeometry x="122" y="80" width="300" height="190" as="geometry" />
        </mxCell>
        <mxCell id="jEakQbfR0bfkf2IqFZ7B-4" style="edgeStyle=orthogonalEdgeStyle;rounded=0;orthogonalLoop=1;jettySize=auto;html=1;exitX=0.5;exitY=1;exitDx=0;exitDy=0;" edge="1" parent="1" source="jEakQbfR0bfkf2IqFZ7B-5">
          <mxGeometry relative="1" as="geometry">
            <mxPoint x="282" y="400" as="targetPoint" />
          </mxGeometry>
        </mxCell>
        <mxCell id="jEakQbfR0bfkf2IqFZ7B-5" value="origin_metadata" style="rhombus;whiteSpace=wrap;html=1;shadow=0;fontFamily=Helvetica;fontSize=12;align=center;strokeWidth=1;spacing=6;spacingTop=-4;" vertex="1" parent="1">
          <mxGeometry x="132" y="125" width="120" height="95" as="geometry" />
        </mxCell>
        <mxCell id="jEakQbfR0bfkf2IqFZ7B-6" style="edgeStyle=orthogonalEdgeStyle;rounded=0;orthogonalLoop=1;jettySize=auto;html=1;exitX=0.5;exitY=1;exitDx=0;exitDy=0;" edge="1" parent="1" source="jEakQbfR0bfkf2IqFZ7B-7">
          <mxGeometry relative="1" as="geometry">
            <mxPoint x="282" y="400" as="targetPoint" />
          </mxGeometry>
        </mxCell>
        <mxCell id="jEakQbfR0bfkf2IqFZ7B-7" value="Tables" style="rhombus;whiteSpace=wrap;html=1;shadow=0;fontFamily=Helvetica;fontSize=12;align=center;strokeWidth=1;spacing=6;spacingTop=-4;" vertex="1" parent="1">
          <mxGeometry x="292" y="127.5" width="120" height="95" as="geometry" />
        </mxCell>
        <mxCell id="jEakQbfR0bfkf2IqFZ7B-8" style="edgeStyle=orthogonalEdgeStyle;rounded=0;orthogonalLoop=1;jettySize=auto;html=1;entryX=0;entryY=0.5;entryDx=0;entryDy=0;" edge="1" parent="1" target="jEakQbfR0bfkf2IqFZ7B-11">
          <mxGeometry relative="1" as="geometry">
            <mxPoint x="372" y="470" as="sourcePoint" />
          </mxGeometry>
        </mxCell>
        <mxCell id="jEakQbfR0bfkf2IqFZ7B-9" style="edgeStyle=orthogonalEdgeStyle;rounded=0;orthogonalLoop=1;jettySize=auto;html=1;entryX=0;entryY=0.5;entryDx=0;entryDy=0;" edge="1" parent="1" source="jEakQbfR0bfkf2IqFZ7B-11" target="jEakQbfR0bfkf2IqFZ7B-25">
          <mxGeometry relative="1" as="geometry">
            <mxPoint x="562" y="265" as="targetPoint" />
          </mxGeometry>
        </mxCell>
        <mxCell id="jEakQbfR0bfkf2IqFZ7B-10" style="edgeStyle=orthogonalEdgeStyle;rounded=0;orthogonalLoop=1;jettySize=auto;html=1;exitX=0.5;exitY=1;exitDx=0;exitDy=0;entryX=0;entryY=0.5;entryDx=0;entryDy=0;" edge="1" parent="1" source="jEakQbfR0bfkf2IqFZ7B-11" target="jEakQbfR0bfkf2IqFZ7B-26">
          <mxGeometry relative="1" as="geometry">
            <mxPoint x="562" y="630" as="targetPoint" />
          </mxGeometry>
        </mxCell>
        <mxCell id="jEakQbfR0bfkf2IqFZ7B-11" value="LLM" style="ellipse;whiteSpace=wrap;html=1;" vertex="1" parent="1">
          <mxGeometry x="472" y="430" width="120" height="80" as="geometry" />
        </mxCell>
        <mxCell id="jEakQbfR0bfkf2IqFZ7B-12" style="edgeStyle=orthogonalEdgeStyle;rounded=0;orthogonalLoop=1;jettySize=auto;html=1;exitX=0.5;exitY=1;exitDx=0;exitDy=0;entryX=1;entryY=0.5;entryDx=0;entryDy=0;" edge="1" parent="1" source="jEakQbfR0bfkf2IqFZ7B-26" target="jEakQbfR0bfkf2IqFZ7B-24">
          <mxGeometry relative="1" as="geometry">
            <mxPoint x="452" y="790" as="targetPoint" />
            <mxPoint x="657" y="700" as="sourcePoint" />
          </mxGeometry>
        </mxCell>
        <mxCell id="jEakQbfR0bfkf2IqFZ7B-13" style="edgeStyle=orthogonalEdgeStyle;rounded=0;orthogonalLoop=1;jettySize=auto;html=1;entryX=0;entryY=0.5;entryDx=0;entryDy=0;" edge="1" parent="1" target="jEakQbfR0bfkf2IqFZ7B-16">
          <mxGeometry relative="1" as="geometry">
            <mxPoint x="752" y="265" as="sourcePoint" />
          </mxGeometry>
        </mxCell>
        <mxCell id="jEakQbfR0bfkf2IqFZ7B-14" value="search&lt;div&gt;&lt;br&gt;&lt;/div&gt;" style="edgeLabel;html=1;align=center;verticalAlign=middle;resizable=0;points=[];" vertex="1" connectable="0" parent="jEakQbfR0bfkf2IqFZ7B-13">
          <mxGeometry x="-0.0165" y="-3" relative="1" as="geometry">
            <mxPoint as="offset" />
          </mxGeometry>
        </mxCell>
        <mxCell id="jEakQbfR0bfkf2IqFZ7B-15" style="edgeStyle=orthogonalEdgeStyle;rounded=0;orthogonalLoop=1;jettySize=auto;html=1;entryX=1;entryY=0.5;entryDx=0;entryDy=0;" edge="1" parent="1" source="jEakQbfR0bfkf2IqFZ7B-16">
          <mxGeometry relative="1" as="geometry">
            <mxPoint x="1032" y="630" as="targetPoint" />
            <Array as="points">
              <mxPoint x="1112" y="265" />
              <mxPoint x="1112" y="630" />
            </Array>
          </mxGeometry>
        </mxCell>
        <mxCell id="jEakQbfR0bfkf2IqFZ7B-16" value="Wiki_dump" style="rounded=1;whiteSpace=wrap;html=1;" vertex="1" parent="1">
          <mxGeometry x="852" y="212.5" width="200" height="105" as="geometry" />
        </mxCell>
        <mxCell id="jEakQbfR0bfkf2IqFZ7B-17" value="" style="edgeStyle=orthogonalEdgeStyle;rounded=0;orthogonalLoop=1;jettySize=auto;html=1;" edge="1" parent="1" target="jEakQbfR0bfkf2IqFZ7B-22">
          <mxGeometry relative="1" as="geometry">
            <mxPoint x="937" y="700" as="sourcePoint" />
          </mxGeometry>
        </mxCell>
        <mxCell id="jEakQbfR0bfkf2IqFZ7B-18" value="" style="edgeStyle=orthogonalEdgeStyle;rounded=0;orthogonalLoop=1;jettySize=auto;html=1;" edge="1" parent="1" source="jEakQbfR0bfkf2IqFZ7B-20" target="jEakQbfR0bfkf2IqFZ7B-22">
          <mxGeometry relative="1" as="geometry" />
        </mxCell>
        <mxCell id="jEakQbfR0bfkf2IqFZ7B-19" style="edgeStyle=orthogonalEdgeStyle;rounded=0;orthogonalLoop=1;jettySize=auto;html=1;entryX=0.5;entryY=1;entryDx=0;entryDy=0;" edge="1" parent="1" source="jEakQbfR0bfkf2IqFZ7B-20" target="jEakQbfR0bfkf2IqFZ7B-24">
          <mxGeometry relative="1" as="geometry">
            <mxPoint x="282" y="810" as="targetPoint" />
          </mxGeometry>
        </mxCell>
        <mxCell id="jEakQbfR0bfkf2IqFZ7B-20" value="input&lt;span style=&quot;background-color: initial;&quot;&gt;_question&lt;/span&gt;" style="shape=callout;whiteSpace=wrap;html=1;perimeter=calloutPerimeter;" vertex="1" parent="1">
          <mxGeometry x="837" y="950" width="200" height="140" as="geometry" />
        </mxCell>
        <mxCell id="jEakQbfR0bfkf2IqFZ7B-21" value="" style="edgeStyle=orthogonalEdgeStyle;rounded=0;orthogonalLoop=1;jettySize=auto;html=1;entryX=1;entryY=0.5;entryDx=0;entryDy=0;" edge="1" parent="1" source="jEakQbfR0bfkf2IqFZ7B-22" target="jEakQbfR0bfkf2IqFZ7B-29">
          <mxGeometry relative="1" as="geometry">
            <mxPoint x="752" y="870" as="targetPoint" />
          </mxGeometry>
        </mxCell>
        <mxCell id="jEakQbfR0bfkf2IqFZ7B-22" value="Dense Passage Retriever&lt;div&gt;(MIPS&lt;span style=&quot;background-color: initial;&quot;&gt;)&lt;/span&gt;&lt;/div&gt;" style="ellipse;whiteSpace=wrap;html=1;" vertex="1" parent="1">
          <mxGeometry x="847" y="770" width="180" height="110" as="geometry" />
        </mxCell>
        <mxCell id="jEakQbfR0bfkf2IqFZ7B-23" style="edgeStyle=orthogonalEdgeStyle;rounded=0;orthogonalLoop=1;jettySize=auto;html=1;exitX=0.5;exitY=0;exitDx=0;exitDy=0;entryX=1;entryY=0.5;entryDx=0;entryDy=0;" edge="1" parent="1" source="jEakQbfR0bfkf2IqFZ7B-29" target="jEakQbfR0bfkf2IqFZ7B-24">
          <mxGeometry relative="1" as="geometry">
            <mxPoint x="657.5714285714289" y="750" as="targetPoint" />
            <mxPoint x="657" y="800" as="sourcePoint" />
            <Array as="points">
              <mxPoint x="665" y="745" />
            </Array>
          </mxGeometry>
        </mxCell>
        <mxCell id="jEakQbfR0bfkf2IqFZ7B-24" value="Agent" style="ellipse;whiteSpace=wrap;html=1;" vertex="1" parent="1">
          <mxGeometry x="192" y="690" width="180" height="110" as="geometry" />
        </mxCell>
        <mxCell id="jEakQbfR0bfkf2IqFZ7B-25" value="background_queries" style="rhombus;whiteSpace=wrap;html=1;shadow=0;fontFamily=Helvetica;fontSize=12;align=center;strokeWidth=1;spacing=6;spacingTop=-4;" vertex="1" parent="1">
          <mxGeometry x="562" y="194" width="190" height="142" as="geometry" />
        </mxCell>
        <mxCell id="jEakQbfR0bfkf2IqFZ7B-26" value="database_description" style="rhombus;whiteSpace=wrap;html=1;shadow=0;fontFamily=Helvetica;fontSize=12;align=center;strokeWidth=1;spacing=6;spacingTop=-4;" vertex="1" parent="1">
          <mxGeometry x="571" y="559" width="190" height="142" as="geometry" />
        </mxCell>
        <mxCell id="jEakQbfR0bfkf2IqFZ7B-27" value="background_documents" style="rhombus;whiteSpace=wrap;html=1;shadow=0;fontFamily=Helvetica;fontSize=12;align=center;strokeWidth=1;spacing=6;spacingTop=-4;" vertex="1" parent="1">
          <mxGeometry x="842" y="559" width="190" height="142" as="geometry" />
        </mxCell>
        <mxCell id="jEakQbfR0bfkf2IqFZ7B-28" value="statistic_schema" style="rhombus;whiteSpace=wrap;html=1;shadow=0;fontFamily=Helvetica;fontSize=12;align=center;strokeWidth=1;spacing=6;spacingTop=-4;" vertex="1" parent="1">
          <mxGeometry x="187" y="399" width="190" height="142" as="geometry" />
        </mxCell>
        <mxCell id="jEakQbfR0bfkf2IqFZ7B-29" value="selected_passages" style="rhombus;whiteSpace=wrap;html=1;shadow=0;fontFamily=Helvetica;fontSize=12;align=center;strokeWidth=1;spacing=6;spacingTop=-4;" vertex="1" parent="1">
          <mxGeometry x="571" y="800" width="190" height="142" as="geometry" />
        </mxCell>
        <mxCell id="jEakQbfR0bfkf2IqFZ7B-30" style="edgeStyle=orthogonalEdgeStyle;rounded=0;orthogonalLoop=1;jettySize=auto;html=1;exitX=0;exitY=0;exitDx=100;exitDy=140;exitPerimeter=0;entryX=0.5;entryY=0;entryDx=0;entryDy=0;" edge="1" parent="1" source="jEakQbfR0bfkf2IqFZ7B-31" target="jEakQbfR0bfkf2IqFZ7B-39">
          <mxGeometry relative="1" as="geometry">
            <mxPoint x="1746.7272727272725" y="543.4545454545453" as="targetPoint" />
          </mxGeometry>
        </mxCell>
        <mxCell id="jEakQbfR0bfkf2IqFZ7B-31" value="input&lt;span style=&quot;background-color: initial;&quot;&gt;_question&lt;/span&gt;" style="shape=callout;whiteSpace=wrap;html=1;perimeter=calloutPerimeter;" vertex="1" parent="1">
          <mxGeometry x="1525" y="220" width="200" height="140" as="geometry" />
        </mxCell>
        <mxCell id="jEakQbfR0bfkf2IqFZ7B-32" style="edgeStyle=orthogonalEdgeStyle;rounded=0;orthogonalLoop=1;jettySize=auto;html=1;exitX=0.5;exitY=1;exitDx=0;exitDy=0;entryX=0.5;entryY=0;entryDx=0;entryDy=0;" edge="1" parent="1" source="jEakQbfR0bfkf2IqFZ7B-33" target="jEakQbfR0bfkf2IqFZ7B-39">
          <mxGeometry relative="1" as="geometry">
            <mxPoint x="2019" y="552" as="targetPoint" />
            <Array as="points">
              <mxPoint x="2144" y="482" />
              <mxPoint x="1893" y="482" />
            </Array>
          </mxGeometry>
        </mxCell>
        <mxCell id="jEakQbfR0bfkf2IqFZ7B-33" value="database_description" style="rhombus;whiteSpace=wrap;html=1;shadow=0;fontFamily=Helvetica;fontSize=12;align=center;strokeWidth=1;spacing=6;spacingTop=-4;" vertex="1" parent="1">
          <mxGeometry x="2049" y="206" width="190" height="142" as="geometry" />
        </mxCell>
        <mxCell id="jEakQbfR0bfkf2IqFZ7B-34" style="edgeStyle=orthogonalEdgeStyle;rounded=0;orthogonalLoop=1;jettySize=auto;html=1;exitX=0.5;exitY=1;exitDx=0;exitDy=0;entryX=0.5;entryY=0;entryDx=0;entryDy=0;" edge="1" parent="1" source="jEakQbfR0bfkf2IqFZ7B-35" target="jEakQbfR0bfkf2IqFZ7B-39">
          <mxGeometry relative="1" as="geometry">
            <mxPoint x="1893" y="536" as="targetPoint" />
          </mxGeometry>
        </mxCell>
        <mxCell id="jEakQbfR0bfkf2IqFZ7B-35" value="Ambiguous in Schema" style="whiteSpace=wrap;html=1;aspect=fixed;" vertex="1" parent="1">
          <mxGeometry x="1835" y="212.5" width="115" height="115" as="geometry" />
        </mxCell>
        <mxCell id="jEakQbfR0bfkf2IqFZ7B-36" style="edgeStyle=orthogonalEdgeStyle;rounded=0;orthogonalLoop=1;jettySize=auto;html=1;exitX=0;exitY=1;exitDx=0;exitDy=0;entryX=0.5;entryY=0;entryDx=0;entryDy=0;" edge="1" parent="1" source="jEakQbfR0bfkf2IqFZ7B-39" target="jEakQbfR0bfkf2IqFZ7B-44">
          <mxGeometry relative="1" as="geometry">
            <mxPoint x="1759.454545454545" y="871.6363636363635" as="targetPoint" />
          </mxGeometry>
        </mxCell>
        <mxCell id="jEakQbfR0bfkf2IqFZ7B-37" style="edgeStyle=orthogonalEdgeStyle;rounded=0;orthogonalLoop=1;jettySize=auto;html=1;exitX=0.5;exitY=1;exitDx=0;exitDy=0;entryX=0.5;entryY=0;entryDx=0;entryDy=0;" edge="1" parent="1" source="jEakQbfR0bfkf2IqFZ7B-39" target="jEakQbfR0bfkf2IqFZ7B-45">
          <mxGeometry relative="1" as="geometry">
            <mxPoint x="1893.090909090909" y="866.181818181818" as="targetPoint" />
          </mxGeometry>
        </mxCell>
        <mxCell id="jEakQbfR0bfkf2IqFZ7B-38" style="edgeStyle=orthogonalEdgeStyle;rounded=0;orthogonalLoop=1;jettySize=auto;html=1;exitX=1;exitY=1;exitDx=0;exitDy=0;entryX=0.5;entryY=0;entryDx=0;entryDy=0;" edge="1" parent="1" source="jEakQbfR0bfkf2IqFZ7B-39" target="jEakQbfR0bfkf2IqFZ7B-46">
          <mxGeometry relative="1" as="geometry">
            <mxPoint x="2023.090909090909" y="868.9090909090908" as="targetPoint" />
          </mxGeometry>
        </mxCell>
        <mxCell id="jEakQbfR0bfkf2IqFZ7B-39" value="&lt;div&gt;abbreviation&lt;/div&gt;Assumer+Verifier" style="ellipse;whiteSpace=wrap;html=1;" vertex="1" parent="1">
          <mxGeometry x="1784" y="605" width="219" height="122" as="geometry" />
        </mxCell>
        <mxCell id="jEakQbfR0bfkf2IqFZ7B-40" style="edgeStyle=orthogonalEdgeStyle;rounded=0;orthogonalLoop=1;jettySize=auto;html=1;exitX=0;exitY=0.5;exitDx=0;exitDy=0;entryX=1;entryY=0.5;entryDx=0;entryDy=0;" edge="1" parent="1" source="jEakQbfR0bfkf2IqFZ7B-42" target="jEakQbfR0bfkf2IqFZ7B-39">
          <mxGeometry relative="1" as="geometry" />
        </mxCell>
        <mxCell id="jEakQbfR0bfkf2IqFZ7B-41" value="prior" style="edgeLabel;html=1;align=center;verticalAlign=middle;resizable=0;points=[];" vertex="1" connectable="0" parent="jEakQbfR0bfkf2IqFZ7B-40">
          <mxGeometry x="-0.7481" y="-4" relative="1" as="geometry">
            <mxPoint x="-1" as="offset" />
          </mxGeometry>
        </mxCell>
        <mxCell id="jEakQbfR0bfkf2IqFZ7B-42" value="internal Documents" style="rhombus;whiteSpace=wrap;html=1;shadow=0;fontFamily=Helvetica;fontSize=12;align=center;strokeWidth=1;spacing=6;spacingTop=-4;" vertex="1" parent="1">
          <mxGeometry x="2321" y="446" width="190" height="142" as="geometry" />
        </mxCell>
        <mxCell id="jEakQbfR0bfkf2IqFZ7B-43" style="edgeStyle=orthogonalEdgeStyle;rounded=0;orthogonalLoop=1;jettySize=auto;html=1;exitX=0.5;exitY=1;exitDx=0;exitDy=0;" edge="1" parent="1" source="jEakQbfR0bfkf2IqFZ7B-44">
          <mxGeometry relative="1" as="geometry">
            <mxPoint x="1900" y="-140" as="targetPoint" />
            <Array as="points">
              <mxPoint x="1739" y="1033" />
              <mxPoint x="1253" y="1033" />
              <mxPoint x="1253" y="29" />
              <mxPoint x="1783" y="29" />
            </Array>
          </mxGeometry>
        </mxCell>
        <mxCell id="jEakQbfR0bfkf2IqFZ7B-44" value="Assumption1" style="rhombus;whiteSpace=wrap;html=1;shadow=0;fontFamily=Helvetica;fontSize=12;align=center;strokeWidth=1;spacing=6;spacingTop=-4;" vertex="1" parent="1">
          <mxGeometry x="1661" y="888" width="157" height="125" as="geometry" />
        </mxCell>
        <mxCell id="jEakQbfR0bfkf2IqFZ7B-45" value="assumpt&lt;span style=&quot;background-color: initial;&quot;&gt;ion2&lt;/span&gt;" style="rhombus;whiteSpace=wrap;html=1;shadow=0;fontFamily=Helvetica;fontSize=12;align=center;strokeWidth=1;spacing=6;spacingTop=-4;" vertex="1" parent="1">
          <mxGeometry x="1816" y="888" width="157" height="125" as="geometry" />
        </mxCell>
        <mxCell id="jEakQbfR0bfkf2IqFZ7B-46" value="Assumption3" style="rhombus;whiteSpace=wrap;html=1;shadow=0;fontFamily=Helvetica;fontSize=12;align=center;strokeWidth=1;spacing=6;spacingTop=-4;" vertex="1" parent="1">
          <mxGeometry x="1973" y="888" width="157" height="125" as="geometry" />
        </mxCell>
        <mxCell id="jEakQbfR0bfkf2IqFZ7B-47" style="edgeStyle=orthogonalEdgeStyle;rounded=0;orthogonalLoop=1;jettySize=auto;html=1;exitX=0.5;exitY=0;exitDx=0;exitDy=0;entryX=0.5;entryY=1;entryDx=0;entryDy=0;" edge="1" parent="1" target="jEakQbfR0bfkf2IqFZ7B-62">
          <mxGeometry relative="1" as="geometry">
            <mxPoint x="1892.5" y="-34" as="sourcePoint" />
          </mxGeometry>
        </mxCell>
        <mxCell id="jEakQbfR0bfkf2IqFZ7B-48" value="" style="endArrow=none;dashed=1;html=1;dashPattern=1 3;strokeWidth=2;rounded=0;" edge="1" parent="1">
          <mxGeometry width="50" height="50" relative="1" as="geometry">
            <mxPoint x="2087" y="870.09" as="sourcePoint" />
            <mxPoint x="2247" y="870.09" as="targetPoint" />
          </mxGeometry>
        </mxCell>
        <mxCell id="jEakQbfR0bfkf2IqFZ7B-49" value="" style="shape=mxgraph.sysml.x;" vertex="1" parent="1">
          <mxGeometry x="1875" y="1027" width="40" height="40" as="geometry" />
        </mxCell>
        <mxCell id="jEakQbfR0bfkf2IqFZ7B-50" value="" style="shape=mxgraph.sysml.x;" vertex="1" parent="1">
          <mxGeometry x="2034" y="1028" width="40" height="40" as="geometry" />
        </mxCell>
        <mxCell id="jEakQbfR0bfkf2IqFZ7B-51" style="edgeStyle=orthogonalEdgeStyle;rounded=0;orthogonalLoop=1;jettySize=auto;html=1;exitX=0;exitY=0.5;exitDx=0;exitDy=0;entryX=1;entryY=0.5;entryDx=0;entryDy=0;" edge="1" parent="1" source="jEakQbfR0bfkf2IqFZ7B-53" target="jEakQbfR0bfkf2IqFZ7B-39">
          <mxGeometry relative="1" as="geometry" />
        </mxCell>
        <mxCell id="jEakQbfR0bfkf2IqFZ7B-52" value="if not" style="edgeLabel;html=1;align=center;verticalAlign=middle;resizable=0;points=[];" vertex="1" connectable="0" parent="jEakQbfR0bfkf2IqFZ7B-51">
          <mxGeometry x="-0.6766" relative="1" as="geometry">
            <mxPoint x="-1" as="offset" />
          </mxGeometry>
        </mxCell>
        <mxCell id="jEakQbfR0bfkf2IqFZ7B-53" value="external Documents" style="rhombus;whiteSpace=wrap;html=1;shadow=0;fontFamily=Helvetica;fontSize=12;align=center;strokeWidth=1;spacing=6;spacingTop=-4;" vertex="1" parent="1">
          <mxGeometry x="2321" y="697" width="190" height="142" as="geometry" />
        </mxCell>
        <mxCell id="jEakQbfR0bfkf2IqFZ7B-54" style="edgeStyle=orthogonalEdgeStyle;rounded=0;orthogonalLoop=1;jettySize=auto;html=1;exitX=1;exitY=0.5;exitDx=0;exitDy=0;" edge="1" parent="1" source="jEakQbfR0bfkf2IqFZ7B-62" target="jEakQbfR0bfkf2IqFZ7B-64">
          <mxGeometry relative="1" as="geometry" />
        </mxCell>
        <mxCell id="jEakQbfR0bfkf2IqFZ7B-55" style="edgeStyle=orthogonalEdgeStyle;rounded=0;orthogonalLoop=1;jettySize=auto;html=1;exitX=0.5;exitY=0;exitDx=0;exitDy=0;entryX=0.5;entryY=1;entryDx=0;entryDy=0;" edge="1" parent="1" source="jEakQbfR0bfkf2IqFZ7B-62" target="jEakQbfR0bfkf2IqFZ7B-65">
          <mxGeometry relative="1" as="geometry" />
        </mxCell>
        <mxCell id="jEakQbfR0bfkf2IqFZ7B-56" style="edgeStyle=orthogonalEdgeStyle;rounded=0;orthogonalLoop=1;jettySize=auto;html=1;exitX=0.5;exitY=0;exitDx=0;exitDy=0;entryX=0.5;entryY=1;entryDx=0;entryDy=0;" edge="1" parent="1" source="jEakQbfR0bfkf2IqFZ7B-62" target="jEakQbfR0bfkf2IqFZ7B-66">
          <mxGeometry relative="1" as="geometry" />
        </mxCell>
        <mxCell id="jEakQbfR0bfkf2IqFZ7B-57" style="edgeStyle=orthogonalEdgeStyle;rounded=0;orthogonalLoop=1;jettySize=auto;html=1;exitX=0.5;exitY=0;exitDx=0;exitDy=0;entryX=0.5;entryY=1;entryDx=0;entryDy=0;" edge="1" parent="1" source="jEakQbfR0bfkf2IqFZ7B-62" target="jEakQbfR0bfkf2IqFZ7B-67">
          <mxGeometry relative="1" as="geometry" />
        </mxCell>
        <mxCell id="jEakQbfR0bfkf2IqFZ7B-58" style="edgeStyle=orthogonalEdgeStyle;rounded=0;orthogonalLoop=1;jettySize=auto;html=1;exitX=0.5;exitY=0;exitDx=0;exitDy=0;entryX=0.5;entryY=1;entryDx=0;entryDy=0;" edge="1" parent="1" source="jEakQbfR0bfkf2IqFZ7B-62" target="jEakQbfR0bfkf2IqFZ7B-69">
          <mxGeometry relative="1" as="geometry" />
        </mxCell>
        <mxCell id="jEakQbfR0bfkf2IqFZ7B-59" style="edgeStyle=orthogonalEdgeStyle;rounded=0;orthogonalLoop=1;jettySize=auto;html=1;exitX=0.5;exitY=1;exitDx=0;exitDy=0;entryX=0.5;entryY=0;entryDx=0;entryDy=0;" edge="1" parent="1" source="jEakQbfR0bfkf2IqFZ7B-62" target="jEakQbfR0bfkf2IqFZ7B-35">
          <mxGeometry relative="1" as="geometry">
            <mxPoint x="1893" y="210" as="targetPoint" />
          </mxGeometry>
        </mxCell>
        <mxCell id="jEakQbfR0bfkf2IqFZ7B-60" style="edgeStyle=orthogonalEdgeStyle;rounded=0;orthogonalLoop=1;jettySize=auto;html=1;exitX=0.5;exitY=0;exitDx=0;exitDy=0;entryX=0.5;entryY=1;entryDx=0;entryDy=0;" edge="1" parent="1" source="jEakQbfR0bfkf2IqFZ7B-62" target="jEakQbfR0bfkf2IqFZ7B-72">
          <mxGeometry relative="1" as="geometry" />
        </mxCell>
        <mxCell id="jEakQbfR0bfkf2IqFZ7B-61" style="edgeStyle=orthogonalEdgeStyle;rounded=0;orthogonalLoop=1;jettySize=auto;html=1;exitX=0.5;exitY=0;exitDx=0;exitDy=0;entryX=0.5;entryY=1;entryDx=0;entryDy=0;" edge="1" parent="1" source="jEakQbfR0bfkf2IqFZ7B-62" target="jEakQbfR0bfkf2IqFZ7B-79">
          <mxGeometry relative="1" as="geometry" />
        </mxCell>
        <mxCell id="jEakQbfR0bfkf2IqFZ7B-62" value="parser" style="ellipse;whiteSpace=wrap;html=1;" vertex="1" parent="1">
          <mxGeometry x="1782" y="-342" width="219" height="124" as="geometry" />
        </mxCell>
        <mxCell id="jEakQbfR0bfkf2IqFZ7B-63" style="edgeStyle=orthogonalEdgeStyle;rounded=0;orthogonalLoop=1;jettySize=auto;html=1;exitX=1;exitY=0.5;exitDx=0;exitDy=0;" edge="1" parent="1" source="jEakQbfR0bfkf2IqFZ7B-64">
          <mxGeometry relative="1" as="geometry">
            <mxPoint x="2880" y="-280" as="targetPoint" />
          </mxGeometry>
        </mxCell>
        <mxCell id="jEakQbfR0bfkf2IqFZ7B-64" value="planner" style="ellipse;whiteSpace=wrap;html=1;" vertex="1" parent="1">
          <mxGeometry x="2392" y="-342" width="219" height="124" as="geometry" />
        </mxCell>
        <mxCell id="jEakQbfR0bfkf2IqFZ7B-65" value="get selected schema&lt;br&gt;(schema linking" style="ellipse;whiteSpace=wrap;html=1;" vertex="1" parent="1">
          <mxGeometry x="1697" y="-547" width="120" height="80" as="geometry" />
        </mxCell>
        <mxCell id="jEakQbfR0bfkf2IqFZ7B-66" value="get full schema" style="ellipse;whiteSpace=wrap;html=1;" vertex="1" parent="1">
          <mxGeometry x="1966" y="-547" width="120" height="80" as="geometry" />
        </mxCell>
        <mxCell id="jEakQbfR0bfkf2IqFZ7B-67" value="DB sampler" style="ellipse;whiteSpace=wrap;html=1;" vertex="1" parent="1">
          <mxGeometry x="2135" y="-547" width="120" height="80" as="geometry" />
        </mxCell>
        <mxCell id="jEakQbfR0bfkf2IqFZ7B-68" value="" style="endArrow=none;dashed=1;html=1;dashPattern=1 3;strokeWidth=2;rounded=0;" edge="1" parent="1">
          <mxGeometry width="50" height="50" relative="1" as="geometry">
            <mxPoint x="2657" y="-514.9999999999999" as="sourcePoint" />
            <mxPoint x="2817" y="-514.9999999999999" as="targetPoint" />
          </mxGeometry>
        </mxCell>
        <mxCell id="jEakQbfR0bfkf2IqFZ7B-69" value="get internal docs" style="ellipse;whiteSpace=wrap;html=1;" vertex="1" parent="1">
          <mxGeometry x="2304" y="-547" width="120" height="80" as="geometry" />
        </mxCell>
        <mxCell id="jEakQbfR0bfkf2IqFZ7B-70" style="edgeStyle=orthogonalEdgeStyle;rounded=0;orthogonalLoop=1;jettySize=auto;html=1;exitX=0;exitY=0;exitDx=100;exitDy=140;exitPerimeter=0;" edge="1" parent="1" source="jEakQbfR0bfkf2IqFZ7B-71" target="jEakQbfR0bfkf2IqFZ7B-62">
          <mxGeometry relative="1" as="geometry" />
        </mxCell>
        <mxCell id="jEakQbfR0bfkf2IqFZ7B-71" value="input&lt;span style=&quot;background-color: initial;&quot;&gt;_question&lt;/span&gt;" style="shape=callout;whiteSpace=wrap;html=1;perimeter=calloutPerimeter;" vertex="1" parent="1">
          <mxGeometry x="1424" y="-482" width="200" height="140" as="geometry" />
        </mxCell>
        <mxCell id="jEakQbfR0bfkf2IqFZ7B-72" value="get database_description" style="ellipse;whiteSpace=wrap;html=1;" vertex="1" parent="1">
          <mxGeometry x="2503" y="-547" width="120" height="80" as="geometry" />
        </mxCell>
        <mxCell id="jEakQbfR0bfkf2IqFZ7B-73" style="edgeStyle=orthogonalEdgeStyle;rounded=0;orthogonalLoop=1;jettySize=auto;html=1;exitX=0.5;exitY=0;exitDx=0;exitDy=0;entryX=0;entryY=0.5;entryDx=0;entryDy=0;" edge="1" parent="1" source="jEakQbfR0bfkf2IqFZ7B-74" target="jEakQbfR0bfkf2IqFZ7B-62">
          <mxGeometry relative="1" as="geometry" />
        </mxCell>
        <mxCell id="jEakQbfR0bfkf2IqFZ7B-74" value="tables" style="rhombus;whiteSpace=wrap;html=1;shadow=0;fontFamily=Helvetica;fontSize=12;align=center;strokeWidth=1;spacing=6;spacingTop=-4;" vertex="1" parent="1">
          <mxGeometry x="1429" y="-198" width="190" height="142" as="geometry" />
        </mxCell>
        <mxCell id="jEakQbfR0bfkf2IqFZ7B-75" style="edgeStyle=orthogonalEdgeStyle;rounded=0;orthogonalLoop=1;jettySize=auto;html=1;exitX=1;exitY=0.5;exitDx=0;exitDy=0;entryX=0;entryY=0.5;entryDx=0;entryDy=0;" edge="1" parent="1" source="jEakQbfR0bfkf2IqFZ7B-76" target="jEakQbfR0bfkf2IqFZ7B-62">
          <mxGeometry relative="1" as="geometry" />
        </mxCell>
        <mxCell id="jEakQbfR0bfkf2IqFZ7B-76" value="internal docs" style="rhombus;whiteSpace=wrap;html=1;shadow=0;fontFamily=Helvetica;fontSize=12;align=center;strokeWidth=1;spacing=6;spacingTop=-4;" vertex="1" parent="1">
          <mxGeometry x="1298" y="-351" width="190" height="142" as="geometry" />
        </mxCell>
        <mxCell id="jEakQbfR0bfkf2IqFZ7B-77" style="edgeStyle=orthogonalEdgeStyle;rounded=0;orthogonalLoop=1;jettySize=auto;html=1;exitX=0;exitY=0;exitDx=0;exitDy=55;exitPerimeter=0;" edge="1" parent="1" source="jEakQbfR0bfkf2IqFZ7B-78">
          <mxGeometry relative="1" as="geometry">
            <mxPoint x="1886.25" y="-137.5" as="targetPoint" />
          </mxGeometry>
        </mxCell>
        <mxCell id="jEakQbfR0bfkf2IqFZ7B-78" value="&lt;div&gt;Q:what can ....... mean here??&lt;/div&gt;A:is it ...........?" style="shape=callout;whiteSpace=wrap;html=1;perimeter=calloutPerimeter;" vertex="1" parent="1">
          <mxGeometry x="2200" y="-143" width="200" height="140" as="geometry" />
        </mxCell>
        <mxCell id="jEakQbfR0bfkf2IqFZ7B-79" value="RAG internal DOCs" style="ellipse;whiteSpace=wrap;html=1;" vertex="1" parent="1">
          <mxGeometry x="1831.5" y="-554" width="120" height="80" as="geometry" />
        </mxCell>
        <mxCell id="jEakQbfR0bfkf2IqFZ7B-80" value="generator/excutor" style="ellipse;whiteSpace=wrap;html=1;" vertex="1" parent="1">
          <mxGeometry x="2880" y="-342" width="219" height="124" as="geometry" />
        </mxCell>
        <mxCell id="jEakQbfR0bfkf2IqFZ7B-81" value="&lt;font style=&quot;font-size: 27px;&quot;&gt;tool set&lt;/font&gt;" style="text;html=1;align=center;verticalAlign=middle;resizable=0;points=[];autosize=1;strokeColor=none;fillColor=none;" vertex="1" parent="1">
          <mxGeometry x="2740" y="-450" width="110" height="50" as="geometry" />
        </mxCell>
        <mxCell id="jEakQbfR0bfkf2IqFZ7B-82" style="edgeStyle=orthogonalEdgeStyle;rounded=0;orthogonalLoop=1;jettySize=auto;html=1;exitX=0.75;exitY=1;exitDx=0;exitDy=0;entryX=1;entryY=0.5;entryDx=0;entryDy=0;" edge="1" parent="1" source="jEakQbfR0bfkf2IqFZ7B-83" target="jEakQbfR0bfkf2IqFZ7B-93">
          <mxGeometry relative="1" as="geometry" />
        </mxCell>
        <mxCell id="jEakQbfR0bfkf2IqFZ7B-83" value="" style="rounded=1;whiteSpace=wrap;html=1;" vertex="1" parent="1">
          <mxGeometry x="466.79999999999995" y="-2570" width="1296" height="210" as="geometry" />
        </mxCell>
        <mxCell id="jEakQbfR0bfkf2IqFZ7B-84" style="edgeStyle=orthogonalEdgeStyle;rounded=0;orthogonalLoop=1;jettySize=auto;html=1;exitX=0;exitY=0;exitDx=100;exitDy=140;exitPerimeter=0;entryX=0.5;entryY=0;entryDx=0;entryDy=0;" edge="1" parent="1" source="jEakQbfR0bfkf2IqFZ7B-85" target="jEakQbfR0bfkf2IqFZ7B-93">
          <mxGeometry relative="1" as="geometry">
            <mxPoint x="533.5272727272725" y="-1446.5454545454547" as="targetPoint" />
          </mxGeometry>
        </mxCell>
        <mxCell id="jEakQbfR0bfkf2IqFZ7B-85" value="input&lt;span style=&quot;background-color: initial;&quot;&gt;_question&lt;/span&gt;" style="shape=callout;whiteSpace=wrap;html=1;perimeter=calloutPerimeter;" vertex="1" parent="1">
          <mxGeometry x="311.79999999999995" y="-1770" width="200" height="140" as="geometry" />
        </mxCell>
        <mxCell id="jEakQbfR0bfkf2IqFZ7B-86" style="edgeStyle=orthogonalEdgeStyle;rounded=0;orthogonalLoop=1;jettySize=auto;html=1;exitX=0.5;exitY=1;exitDx=0;exitDy=0;entryX=0.5;entryY=0;entryDx=0;entryDy=0;" edge="1" parent="1" source="jEakQbfR0bfkf2IqFZ7B-87" target="jEakQbfR0bfkf2IqFZ7B-93">
          <mxGeometry relative="1" as="geometry">
            <mxPoint x="805.8" y="-1438" as="targetPoint" />
            <Array as="points">
              <mxPoint x="930.8" y="-1508" />
              <mxPoint x="679.8" y="-1508" />
            </Array>
          </mxGeometry>
        </mxCell>
        <mxCell id="jEakQbfR0bfkf2IqFZ7B-87" value="database_description" style="rhombus;whiteSpace=wrap;html=1;shadow=0;fontFamily=Helvetica;fontSize=12;align=center;strokeWidth=1;spacing=6;spacingTop=-4;" vertex="1" parent="1">
          <mxGeometry x="835.8" y="-1784" width="190" height="142" as="geometry" />
        </mxCell>
        <mxCell id="jEakQbfR0bfkf2IqFZ7B-88" style="edgeStyle=orthogonalEdgeStyle;rounded=0;orthogonalLoop=1;jettySize=auto;html=1;exitX=0.5;exitY=1;exitDx=0;exitDy=0;entryX=0.5;entryY=0;entryDx=0;entryDy=0;" edge="1" parent="1" source="jEakQbfR0bfkf2IqFZ7B-89" target="jEakQbfR0bfkf2IqFZ7B-93">
          <mxGeometry relative="1" as="geometry">
            <mxPoint x="679.8" y="-1454" as="targetPoint" />
          </mxGeometry>
        </mxCell>
        <mxCell id="jEakQbfR0bfkf2IqFZ7B-89" value="Ambiguous in Schema" style="whiteSpace=wrap;html=1;aspect=fixed;" vertex="1" parent="1">
          <mxGeometry x="621.8" y="-1777.5" width="115" height="115" as="geometry" />
        </mxCell>
        <mxCell id="jEakQbfR0bfkf2IqFZ7B-90" style="edgeStyle=orthogonalEdgeStyle;rounded=0;orthogonalLoop=1;jettySize=auto;html=1;exitX=0;exitY=1;exitDx=0;exitDy=0;entryX=0.5;entryY=0;entryDx=0;entryDy=0;" edge="1" parent="1" source="jEakQbfR0bfkf2IqFZ7B-93" target="jEakQbfR0bfkf2IqFZ7B-98">
          <mxGeometry relative="1" as="geometry">
            <mxPoint x="546.254545454545" y="-1118.3636363636365" as="targetPoint" />
          </mxGeometry>
        </mxCell>
        <mxCell id="jEakQbfR0bfkf2IqFZ7B-91" style="edgeStyle=orthogonalEdgeStyle;rounded=0;orthogonalLoop=1;jettySize=auto;html=1;exitX=0.5;exitY=1;exitDx=0;exitDy=0;entryX=0.5;entryY=0;entryDx=0;entryDy=0;" edge="1" parent="1" source="jEakQbfR0bfkf2IqFZ7B-93" target="jEakQbfR0bfkf2IqFZ7B-99">
          <mxGeometry relative="1" as="geometry">
            <mxPoint x="679.890909090909" y="-1123.818181818182" as="targetPoint" />
          </mxGeometry>
        </mxCell>
        <mxCell id="jEakQbfR0bfkf2IqFZ7B-92" style="edgeStyle=orthogonalEdgeStyle;rounded=0;orthogonalLoop=1;jettySize=auto;html=1;exitX=1;exitY=1;exitDx=0;exitDy=0;entryX=0.5;entryY=0;entryDx=0;entryDy=0;" edge="1" parent="1" source="jEakQbfR0bfkf2IqFZ7B-93" target="jEakQbfR0bfkf2IqFZ7B-100">
          <mxGeometry relative="1" as="geometry">
            <mxPoint x="809.890909090909" y="-1121.0909090909092" as="targetPoint" />
          </mxGeometry>
        </mxCell>
        <mxCell id="jEakQbfR0bfkf2IqFZ7B-93" value="&lt;div&gt;SFT&lt;/div&gt;&lt;div&gt;abbreviation&lt;/div&gt;Assumer+Verifier" style="ellipse;whiteSpace=wrap;html=1;" vertex="1" parent="1">
          <mxGeometry x="570.8" y="-1385" width="219" height="122" as="geometry" />
        </mxCell>
        <mxCell id="jEakQbfR0bfkf2IqFZ7B-94" style="edgeStyle=orthogonalEdgeStyle;rounded=0;orthogonalLoop=1;jettySize=auto;html=1;exitX=0;exitY=0.5;exitDx=0;exitDy=0;entryX=1;entryY=0.5;entryDx=0;entryDy=0;" edge="1" parent="1" source="jEakQbfR0bfkf2IqFZ7B-168" target="jEakQbfR0bfkf2IqFZ7B-93">
          <mxGeometry relative="1" as="geometry">
            <mxPoint x="1107.7999999999997" y="-1472.9999999999995" as="sourcePoint" />
          </mxGeometry>
        </mxCell>
        <mxCell id="jEakQbfR0bfkf2IqFZ7B-95" value="prior" style="edgeLabel;html=1;align=center;verticalAlign=middle;resizable=0;points=[];" vertex="1" connectable="0" parent="jEakQbfR0bfkf2IqFZ7B-94">
          <mxGeometry x="-0.7481" y="-4" relative="1" as="geometry">
            <mxPoint x="-1" as="offset" />
          </mxGeometry>
        </mxCell>
        <mxCell id="jEakQbfR0bfkf2IqFZ7B-97" style="edgeStyle=orthogonalEdgeStyle;rounded=0;orthogonalLoop=1;jettySize=auto;html=1;exitX=0.5;exitY=1;exitDx=0;exitDy=0;" edge="1" parent="1" source="jEakQbfR0bfkf2IqFZ7B-98">
          <mxGeometry relative="1" as="geometry">
            <mxPoint x="686.8" y="-2130" as="targetPoint" />
            <Array as="points">
              <mxPoint x="525.8" y="-957" />
              <mxPoint x="39.799999999999955" y="-957" />
              <mxPoint x="39.799999999999955" y="-1961" />
              <mxPoint x="569.8" y="-1961" />
            </Array>
          </mxGeometry>
        </mxCell>
        <mxCell id="jEakQbfR0bfkf2IqFZ7B-98" value="Assumption1" style="rhombus;whiteSpace=wrap;html=1;shadow=0;fontFamily=Helvetica;fontSize=12;align=center;strokeWidth=1;spacing=6;spacingTop=-4;" vertex="1" parent="1">
          <mxGeometry x="447.79999999999995" y="-1102" width="157" height="125" as="geometry" />
        </mxCell>
        <mxCell id="jEakQbfR0bfkf2IqFZ7B-99" value="assumpt&lt;span style=&quot;background-color: initial;&quot;&gt;ion2&lt;/span&gt;" style="rhombus;whiteSpace=wrap;html=1;shadow=0;fontFamily=Helvetica;fontSize=12;align=center;strokeWidth=1;spacing=6;spacingTop=-4;" vertex="1" parent="1">
          <mxGeometry x="602.8" y="-1102" width="157" height="125" as="geometry" />
        </mxCell>
        <mxCell id="jEakQbfR0bfkf2IqFZ7B-100" value="Assumption3" style="rhombus;whiteSpace=wrap;html=1;shadow=0;fontFamily=Helvetica;fontSize=12;align=center;strokeWidth=1;spacing=6;spacingTop=-4;" vertex="1" parent="1">
          <mxGeometry x="759.8" y="-1102" width="157" height="125" as="geometry" />
        </mxCell>
        <mxCell id="jEakQbfR0bfkf2IqFZ7B-101" style="edgeStyle=orthogonalEdgeStyle;rounded=0;orthogonalLoop=1;jettySize=auto;html=1;exitX=0.5;exitY=0;exitDx=0;exitDy=0;entryX=0.5;entryY=1;entryDx=0;entryDy=0;" edge="1" parent="1" target="jEakQbfR0bfkf2IqFZ7B-116">
          <mxGeometry relative="1" as="geometry">
            <mxPoint x="679.3" y="-2024" as="sourcePoint" />
          </mxGeometry>
        </mxCell>
        <mxCell id="jEakQbfR0bfkf2IqFZ7B-102" value="" style="endArrow=none;dashed=1;html=1;dashPattern=1 3;strokeWidth=2;rounded=0;" edge="1" parent="1">
          <mxGeometry width="50" height="50" relative="1" as="geometry">
            <mxPoint x="873.8" y="-1119.9099999999999" as="sourcePoint" />
            <mxPoint x="1033.8" y="-1119.9099999999999" as="targetPoint" />
          </mxGeometry>
        </mxCell>
        <mxCell id="jEakQbfR0bfkf2IqFZ7B-103" value="" style="shape=mxgraph.sysml.x;" vertex="1" parent="1">
          <mxGeometry x="661.8" y="-963" width="40" height="40" as="geometry" />
        </mxCell>
        <mxCell id="jEakQbfR0bfkf2IqFZ7B-104" value="" style="shape=mxgraph.sysml.x;" vertex="1" parent="1">
          <mxGeometry x="820.8" y="-962" width="40" height="40" as="geometry" />
        </mxCell>
        <mxCell id="jEakQbfR0bfkf2IqFZ7B-108" style="edgeStyle=orthogonalEdgeStyle;rounded=0;orthogonalLoop=1;jettySize=auto;html=1;exitX=1;exitY=0.5;exitDx=0;exitDy=0;" edge="1" parent="1" source="jEakQbfR0bfkf2IqFZ7B-116" target="jEakQbfR0bfkf2IqFZ7B-118">
          <mxGeometry relative="1" as="geometry" />
        </mxCell>
        <mxCell id="jEakQbfR0bfkf2IqFZ7B-109" style="edgeStyle=orthogonalEdgeStyle;rounded=0;orthogonalLoop=1;jettySize=auto;html=1;exitX=0.5;exitY=0;exitDx=0;exitDy=0;entryX=0.5;entryY=1;entryDx=0;entryDy=0;" edge="1" parent="1" source="jEakQbfR0bfkf2IqFZ7B-116" target="jEakQbfR0bfkf2IqFZ7B-119">
          <mxGeometry relative="1" as="geometry" />
        </mxCell>
        <mxCell id="jEakQbfR0bfkf2IqFZ7B-110" style="edgeStyle=orthogonalEdgeStyle;rounded=0;orthogonalLoop=1;jettySize=auto;html=1;exitX=0.5;exitY=0;exitDx=0;exitDy=0;entryX=0.5;entryY=1;entryDx=0;entryDy=0;" edge="1" parent="1" source="jEakQbfR0bfkf2IqFZ7B-116" target="jEakQbfR0bfkf2IqFZ7B-120">
          <mxGeometry relative="1" as="geometry" />
        </mxCell>
        <mxCell id="jEakQbfR0bfkf2IqFZ7B-111" style="edgeStyle=orthogonalEdgeStyle;rounded=0;orthogonalLoop=1;jettySize=auto;html=1;exitX=0.5;exitY=0;exitDx=0;exitDy=0;entryX=0.5;entryY=1;entryDx=0;entryDy=0;" edge="1" parent="1" source="jEakQbfR0bfkf2IqFZ7B-116" target="jEakQbfR0bfkf2IqFZ7B-121">
          <mxGeometry relative="1" as="geometry" />
        </mxCell>
        <mxCell id="jEakQbfR0bfkf2IqFZ7B-112" style="edgeStyle=orthogonalEdgeStyle;rounded=0;orthogonalLoop=1;jettySize=auto;html=1;exitX=0.5;exitY=0;exitDx=0;exitDy=0;entryX=0.5;entryY=1;entryDx=0;entryDy=0;" edge="1" parent="1" source="jEakQbfR0bfkf2IqFZ7B-116" target="jEakQbfR0bfkf2IqFZ7B-123">
          <mxGeometry relative="1" as="geometry" />
        </mxCell>
        <mxCell id="jEakQbfR0bfkf2IqFZ7B-113" style="edgeStyle=orthogonalEdgeStyle;rounded=0;orthogonalLoop=1;jettySize=auto;html=1;exitX=0.5;exitY=1;exitDx=0;exitDy=0;entryX=0.5;entryY=0;entryDx=0;entryDy=0;" edge="1" parent="1" source="jEakQbfR0bfkf2IqFZ7B-116" target="jEakQbfR0bfkf2IqFZ7B-89">
          <mxGeometry relative="1" as="geometry">
            <mxPoint x="679.8" y="-1780" as="targetPoint" />
          </mxGeometry>
        </mxCell>
        <mxCell id="jEakQbfR0bfkf2IqFZ7B-114" style="edgeStyle=orthogonalEdgeStyle;rounded=0;orthogonalLoop=1;jettySize=auto;html=1;exitX=0.5;exitY=0;exitDx=0;exitDy=0;entryX=0.5;entryY=1;entryDx=0;entryDy=0;" edge="1" parent="1" source="jEakQbfR0bfkf2IqFZ7B-116" target="jEakQbfR0bfkf2IqFZ7B-126">
          <mxGeometry relative="1" as="geometry" />
        </mxCell>
        <mxCell id="jEakQbfR0bfkf2IqFZ7B-115" style="edgeStyle=orthogonalEdgeStyle;rounded=0;orthogonalLoop=1;jettySize=auto;html=1;exitX=0.5;exitY=0;exitDx=0;exitDy=0;entryX=0.5;entryY=1;entryDx=0;entryDy=0;" edge="1" parent="1" source="jEakQbfR0bfkf2IqFZ7B-116" target="jEakQbfR0bfkf2IqFZ7B-133">
          <mxGeometry relative="1" as="geometry" />
        </mxCell>
        <mxCell id="jEakQbfR0bfkf2IqFZ7B-116" value="parser" style="ellipse;whiteSpace=wrap;html=1;" vertex="1" parent="1">
          <mxGeometry x="568.8" y="-2332" width="219" height="124" as="geometry" />
        </mxCell>
        <mxCell id="jEakQbfR0bfkf2IqFZ7B-117" style="edgeStyle=orthogonalEdgeStyle;rounded=0;orthogonalLoop=1;jettySize=auto;html=1;exitX=1;exitY=0.5;exitDx=0;exitDy=0;" edge="1" parent="1" source="jEakQbfR0bfkf2IqFZ7B-118">
          <mxGeometry relative="1" as="geometry">
            <mxPoint x="1666.8" y="-2270" as="targetPoint" />
          </mxGeometry>
        </mxCell>
        <mxCell id="jEakQbfR0bfkf2IqFZ7B-118" value="planner" style="ellipse;whiteSpace=wrap;html=1;" vertex="1" parent="1">
          <mxGeometry x="1178.8" y="-2332" width="219" height="124" as="geometry" />
        </mxCell>
        <mxCell id="jEakQbfR0bfkf2IqFZ7B-119" value="get selected schema&lt;br&gt;(schema linking" style="ellipse;whiteSpace=wrap;html=1;" vertex="1" parent="1">
          <mxGeometry x="483.79999999999995" y="-2537" width="120" height="80" as="geometry" />
        </mxCell>
        <mxCell id="jEakQbfR0bfkf2IqFZ7B-120" value="get full schema" style="ellipse;whiteSpace=wrap;html=1;" vertex="1" parent="1">
          <mxGeometry x="752.8" y="-2537" width="120" height="80" as="geometry" />
        </mxCell>
        <mxCell id="jEakQbfR0bfkf2IqFZ7B-121" value="DB sampler" style="ellipse;whiteSpace=wrap;html=1;" vertex="1" parent="1">
          <mxGeometry x="921.8" y="-2537" width="120" height="80" as="geometry" />
        </mxCell>
        <mxCell id="jEakQbfR0bfkf2IqFZ7B-122" value="" style="endArrow=none;dashed=1;html=1;dashPattern=1 3;strokeWidth=2;rounded=0;" edge="1" parent="1">
          <mxGeometry width="50" height="50" relative="1" as="geometry">
            <mxPoint x="1443.8" y="-2505" as="sourcePoint" />
            <mxPoint x="1603.8" y="-2505" as="targetPoint" />
          </mxGeometry>
        </mxCell>
        <mxCell id="jEakQbfR0bfkf2IqFZ7B-123" value="get internal docs" style="ellipse;whiteSpace=wrap;html=1;" vertex="1" parent="1">
          <mxGeometry x="1090.8" y="-2537" width="120" height="80" as="geometry" />
        </mxCell>
        <mxCell id="jEakQbfR0bfkf2IqFZ7B-124" style="edgeStyle=orthogonalEdgeStyle;rounded=0;orthogonalLoop=1;jettySize=auto;html=1;exitX=0;exitY=0;exitDx=100;exitDy=140;exitPerimeter=0;" edge="1" parent="1" source="jEakQbfR0bfkf2IqFZ7B-125" target="jEakQbfR0bfkf2IqFZ7B-116">
          <mxGeometry relative="1" as="geometry" />
        </mxCell>
        <mxCell id="jEakQbfR0bfkf2IqFZ7B-125" value="input&lt;span style=&quot;background-color: initial;&quot;&gt;_question&lt;/span&gt;" style="shape=callout;whiteSpace=wrap;html=1;perimeter=calloutPerimeter;" vertex="1" parent="1">
          <mxGeometry x="210.79999999999995" y="-2472" width="200" height="140" as="geometry" />
        </mxCell>
        <mxCell id="jEakQbfR0bfkf2IqFZ7B-126" value="get database_description" style="ellipse;whiteSpace=wrap;html=1;" vertex="1" parent="1">
          <mxGeometry x="1289.8" y="-2537" width="120" height="80" as="geometry" />
        </mxCell>
        <mxCell id="jEakQbfR0bfkf2IqFZ7B-127" style="edgeStyle=orthogonalEdgeStyle;rounded=0;orthogonalLoop=1;jettySize=auto;html=1;exitX=0.5;exitY=0;exitDx=0;exitDy=0;entryX=0;entryY=0.5;entryDx=0;entryDy=0;" edge="1" parent="1" source="jEakQbfR0bfkf2IqFZ7B-128" target="jEakQbfR0bfkf2IqFZ7B-116">
          <mxGeometry relative="1" as="geometry" />
        </mxCell>
        <mxCell id="jEakQbfR0bfkf2IqFZ7B-128" value="tables" style="rhombus;whiteSpace=wrap;html=1;shadow=0;fontFamily=Helvetica;fontSize=12;align=center;strokeWidth=1;spacing=6;spacingTop=-4;" vertex="1" parent="1">
          <mxGeometry x="215.79999999999995" y="-2188" width="190" height="142" as="geometry" />
        </mxCell>
        <mxCell id="jEakQbfR0bfkf2IqFZ7B-129" style="edgeStyle=orthogonalEdgeStyle;rounded=0;orthogonalLoop=1;jettySize=auto;html=1;exitX=1;exitY=0.5;exitDx=0;exitDy=0;entryX=0;entryY=0.5;entryDx=0;entryDy=0;" edge="1" parent="1" source="jEakQbfR0bfkf2IqFZ7B-130" target="jEakQbfR0bfkf2IqFZ7B-116">
          <mxGeometry relative="1" as="geometry" />
        </mxCell>
        <mxCell id="jEakQbfR0bfkf2IqFZ7B-130" value="Documents" style="rhombus;whiteSpace=wrap;html=1;shadow=0;fontFamily=Helvetica;fontSize=12;align=center;strokeWidth=1;spacing=6;spacingTop=-4;" vertex="1" parent="1">
          <mxGeometry x="84.79999999999995" y="-2341" width="190" height="142" as="geometry" />
        </mxCell>
        <mxCell id="jEakQbfR0bfkf2IqFZ7B-131" style="edgeStyle=orthogonalEdgeStyle;rounded=0;orthogonalLoop=1;jettySize=auto;html=1;exitX=0;exitY=0;exitDx=0;exitDy=55;exitPerimeter=0;" edge="1" parent="1" source="jEakQbfR0bfkf2IqFZ7B-132">
          <mxGeometry relative="1" as="geometry">
            <mxPoint x="673.05" y="-2127.5" as="targetPoint" />
          </mxGeometry>
        </mxCell>
        <mxCell id="jEakQbfR0bfkf2IqFZ7B-132" value="&lt;div&gt;Q:what can ....... mean here??&lt;/div&gt;A:is it ...........?" style="shape=callout;whiteSpace=wrap;html=1;perimeter=calloutPerimeter;" vertex="1" parent="1">
          <mxGeometry x="986.8" y="-2133" width="200" height="140" as="geometry" />
        </mxCell>
        <mxCell id="jEakQbfR0bfkf2IqFZ7B-133" value="RAG DOCs" style="ellipse;whiteSpace=wrap;html=1;" vertex="1" parent="1">
          <mxGeometry x="618.3" y="-2544" width="120" height="80" as="geometry" />
        </mxCell>
        <mxCell id="jEakQbfR0bfkf2IqFZ7B-134" value="generator/excutor" style="ellipse;whiteSpace=wrap;html=1;" vertex="1" parent="1">
          <mxGeometry x="1666.8" y="-2332" width="219" height="124" as="geometry" />
        </mxCell>
        <mxCell id="jEakQbfR0bfkf2IqFZ7B-135" value="&lt;font style=&quot;font-size: 27px;&quot;&gt;tool set&lt;/font&gt;" style="text;html=1;align=center;verticalAlign=middle;resizable=0;points=[];autosize=1;strokeColor=none;fillColor=none;" vertex="1" parent="1">
          <mxGeometry x="1526.8" y="-2440" width="110" height="50" as="geometry" />
        </mxCell>
        <mxCell id="jEakQbfR0bfkf2IqFZ7B-137" value="DB" style="rounded=1;whiteSpace=wrap;html=1;fontSize=12;glass=0;strokeWidth=1;shadow=0;" vertex="1" parent="1">
          <mxGeometry x="2130" y="-2320" width="300" height="190" as="geometry" />
        </mxCell>
        <mxCell id="jEakQbfR0bfkf2IqFZ7B-138" style="edgeStyle=orthogonalEdgeStyle;rounded=0;orthogonalLoop=1;jettySize=auto;html=1;exitX=0.5;exitY=1;exitDx=0;exitDy=0;" edge="1" parent="1" source="jEakQbfR0bfkf2IqFZ7B-139">
          <mxGeometry relative="1" as="geometry">
            <mxPoint x="2290" y="-2000" as="targetPoint" />
          </mxGeometry>
        </mxCell>
        <mxCell id="jEakQbfR0bfkf2IqFZ7B-139" value="origin_metadata" style="rhombus;whiteSpace=wrap;html=1;shadow=0;fontFamily=Helvetica;fontSize=12;align=center;strokeWidth=1;spacing=6;spacingTop=-4;" vertex="1" parent="1">
          <mxGeometry x="2140" y="-2275" width="120" height="95" as="geometry" />
        </mxCell>
        <mxCell id="jEakQbfR0bfkf2IqFZ7B-140" style="edgeStyle=orthogonalEdgeStyle;rounded=0;orthogonalLoop=1;jettySize=auto;html=1;exitX=0.5;exitY=1;exitDx=0;exitDy=0;" edge="1" parent="1" source="jEakQbfR0bfkf2IqFZ7B-141">
          <mxGeometry relative="1" as="geometry">
            <mxPoint x="2290" y="-2000" as="targetPoint" />
          </mxGeometry>
        </mxCell>
        <mxCell id="jEakQbfR0bfkf2IqFZ7B-141" value="Tables" style="rhombus;whiteSpace=wrap;html=1;shadow=0;fontFamily=Helvetica;fontSize=12;align=center;strokeWidth=1;spacing=6;spacingTop=-4;" vertex="1" parent="1">
          <mxGeometry x="2300" y="-2272.5" width="120" height="95" as="geometry" />
        </mxCell>
        <mxCell id="jEakQbfR0bfkf2IqFZ7B-142" style="edgeStyle=orthogonalEdgeStyle;rounded=0;orthogonalLoop=1;jettySize=auto;html=1;entryX=0;entryY=0.5;entryDx=0;entryDy=0;" edge="1" parent="1" target="jEakQbfR0bfkf2IqFZ7B-145">
          <mxGeometry relative="1" as="geometry">
            <mxPoint x="2380" y="-1930" as="sourcePoint" />
          </mxGeometry>
        </mxCell>
        <mxCell id="jEakQbfR0bfkf2IqFZ7B-143" style="edgeStyle=orthogonalEdgeStyle;rounded=0;orthogonalLoop=1;jettySize=auto;html=1;entryX=0;entryY=0.5;entryDx=0;entryDy=0;" edge="1" parent="1" source="jEakQbfR0bfkf2IqFZ7B-145" target="jEakQbfR0bfkf2IqFZ7B-159">
          <mxGeometry relative="1" as="geometry">
            <mxPoint x="2570" y="-2135" as="targetPoint" />
          </mxGeometry>
        </mxCell>
        <mxCell id="jEakQbfR0bfkf2IqFZ7B-145" value="LLM" style="ellipse;whiteSpace=wrap;html=1;" vertex="1" parent="1">
          <mxGeometry x="2480" y="-1970" width="120" height="80" as="geometry" />
        </mxCell>
        <mxCell id="jEakQbfR0bfkf2IqFZ7B-147" style="edgeStyle=orthogonalEdgeStyle;rounded=0;orthogonalLoop=1;jettySize=auto;html=1;entryX=0;entryY=0.5;entryDx=0;entryDy=0;exitX=1;exitY=0.5;exitDx=0;exitDy=0;" edge="1" parent="1" target="jEakQbfR0bfkf2IqFZ7B-150" source="jEakQbfR0bfkf2IqFZ7B-159">
          <mxGeometry relative="1" as="geometry">
            <mxPoint x="2760" y="-2135" as="sourcePoint" />
          </mxGeometry>
        </mxCell>
        <mxCell id="jEakQbfR0bfkf2IqFZ7B-148" value="&lt;div&gt;Scrap&lt;/div&gt;" style="edgeLabel;html=1;align=center;verticalAlign=middle;resizable=0;points=[];" vertex="1" connectable="0" parent="jEakQbfR0bfkf2IqFZ7B-147">
          <mxGeometry x="-0.0165" y="-3" relative="1" as="geometry">
            <mxPoint as="offset" />
          </mxGeometry>
        </mxCell>
        <mxCell id="jEakQbfR0bfkf2IqFZ7B-166" style="edgeStyle=orthogonalEdgeStyle;rounded=0;orthogonalLoop=1;jettySize=auto;html=1;entryX=0.5;entryY=1;entryDx=0;entryDy=0;" edge="1" parent="1" source="jEakQbfR0bfkf2IqFZ7B-150" target="jEakQbfR0bfkf2IqFZ7B-167">
          <mxGeometry relative="1" as="geometry">
            <mxPoint x="3160" y="-2090" as="targetPoint" />
          </mxGeometry>
        </mxCell>
        <mxCell id="jEakQbfR0bfkf2IqFZ7B-150" value="Search Engine top20" style="rounded=1;whiteSpace=wrap;html=1;" vertex="1" parent="1">
          <mxGeometry x="3060" y="-1982.5" width="200" height="105" as="geometry" />
        </mxCell>
        <mxCell id="jEakQbfR0bfkf2IqFZ7B-159" value="background_queries" style="rhombus;whiteSpace=wrap;html=1;shadow=0;fontFamily=Helvetica;fontSize=12;align=center;strokeWidth=1;spacing=6;spacingTop=-4;" vertex="1" parent="1">
          <mxGeometry x="2750" y="-2001" width="190" height="142" as="geometry" />
        </mxCell>
        <mxCell id="jEakQbfR0bfkf2IqFZ7B-162" value="statistic_schema" style="rhombus;whiteSpace=wrap;html=1;shadow=0;fontFamily=Helvetica;fontSize=12;align=center;strokeWidth=1;spacing=6;spacingTop=-4;" vertex="1" parent="1">
          <mxGeometry x="2195" y="-2001" width="190" height="142" as="geometry" />
        </mxCell>
        <mxCell id="jEakQbfR0bfkf2IqFZ7B-167" value="Documents" style="rhombus;whiteSpace=wrap;html=1;shadow=0;fontFamily=Helvetica;fontSize=12;align=center;strokeWidth=1;spacing=6;spacingTop=-4;" vertex="1" parent="1">
          <mxGeometry x="3065" y="-2275" width="190" height="142" as="geometry" />
        </mxCell>
        <mxCell id="jEakQbfR0bfkf2IqFZ7B-168" value="RAG DOCs" style="ellipse;whiteSpace=wrap;html=1;" vertex="1" parent="1">
          <mxGeometry x="1110" y="-1510" width="120" height="80" as="geometry" />
        </mxCell>
      </root>
    </mxGraphModel>
  </diagram>
</mxfile>
